# xmcd
#
# Track frame offsets: 
#        150
#        28310
#        54550
#        75560
#        101318
#        122628
#        141545
#        162883
#        186597
#        213414
#        232260
#        265280
#
# Disc length: 3693 seconds
#
# Revision: 0
# Processed by: cddbd v1.5.2PL0 Copyright (c) Steve Scherf et al.
# Submitted via: ExactAudioCopyFreeDBPlugin 1.0
#
DISCID=b20e6b0c
DTITLE=Hendrix Ackle - Hendrix Ackle
DYEAR=2013
DGENRE=Blues
TTITLE0=Listen
TTITLE1=I Belong To You
TTITLE2=(But When I'M) Close To You
TTITLE3=Farewell
TTITLE4=Hunger
TTITLE5=All That Remains
TTITLE6=If That's The Way
TTITLE7=(Maybe My) Luck
TTITLE8=Me Oh My
TTITLE9=Our One And Only Rule
TTITLE10=Rain Down On Me
TTITLE11=Just Like The Breeze
EXTD=
EXTT0=
EXTT1=
EXTT2=
EXTT3=
EXTT4=
EXTT5=
EXTT6=
EXTT7=
EXTT8=
EXTT9=
EXTT10=
EXTT11=
PLAYORDER=
